<?xml version="1.0" encoding="utf-8"?>
<!-- Generator: Adobe Illustrator 27.5.0, SVG Export Plug-In . SVG Version: 6.00 Build 0)  -->
<!-- 
		red: #ff4122, 
		dark-grey: rgb(23, 23, 23),
		faded-grey: rgb(23, 23, 23, 0.4),
		faded-faded-grey: rgb(23, 23, 23, 0.2),
		faded-black: rgb(17, 17, 17, 0.9)
		faded-faded-black: rgb(17, 17, 17, 0.4),
		black-fade: #2F4353,

-->
<svg version="1.1" xmlns="http://www.w3.org/2000/svg" xmlns:xlink="http://www.w3.org/1999/xlink" x="0px" y="0px"
	 viewBox="0 0 1200 800" style="enable-background:new 0 0 1200 800;" xml:space="preserve">
<g id="object">
	<g>
		<defs>
			<rect id="SVGID_1_" x="0" y="0" width="1200" height="800"/>
		</defs>
		<clipPath id="SVGID_00000158732543467518633480000011139964240819180455_">
			<use xlink:href="#SVGID_1_"  style="overflow:visible;"/>
		</clipPath>
		<polygon style="fill:rgb(23, 23, 23);" points="1156.327,509.198 1163.533,520.239 1185.652,480.515 1137.727,480.701"/>
		<g>
			<polygon style="fill:rgb(17, 17, 17, 0.1);" points="850.541,713.392 874.695,676.385 948.839,809.536 788.197,808.912"/>
			<g>
				<g>
					<polygon style="fill:rgb(23, 23, 23, 0.2);" points="64.3,419.111 122.724,524.031 122.717,524.042 -3.864,523.551 -3.871,523.538 64.286,419.11"/>
					<polygon style="fill:none;" points="466.885,808.302 541.03,941.455 541.021,941.469 541.021,941.469 541.03,941.455 466.885,808.303 466.868,808.302 306.225,807.678 306.225,807.678 466.868,808.302"/>
					<polygon style="fill:none;" points="627.544,808.926 627.544,808.926 788.19,809.55 788.197,809.539 714.051,676.383 
						714.037,676.383 714.044,676.372 639.898,543.217 639.885,543.216 639.898,543.217 714.045,676.372 714.037,676.383 
						714.051,676.383 788.198,809.538 788.19,809.55"/>
					<polygon style="fill:none;" points="380.378,940.845 541.021,941.469 541.021,941.469"/>
					<polygon style="fill:none;" points="95.557,636.864 157.901,541.344 157.919,541.345 157.902,541.344"/>
					<polygon style="fill:none;" points="-15.103,806.451 -15.092,806.435 -15.083,806.452"/>
					<polygon style="fill:none;" points="71.413,673.887 100.933,674.002 71.413,673.887"/>
					<polygon style="fill:rgb(23, 23, 23, 0.2);" points="306.207,807.678 145.566,807.054 145.557,807.038 232.055,674.511 232.055,674.511 232.055,674.511 232.072,674.511 306.217,807.663"/>
				
					<polygon style="fill:rgb(23, 23, 23, 0.4);" points="71.408,673.879 100.929,673.993 232.05,674.503 145.552,807.03"/>
				
					<polygon style="fill:rgb(23, 23, 23, 0.3);" points="627.537,808.914 
						627.529,808.926 466.885,808.302 466.877,808.288 553.377,675.759 553.391,675.759 553.391,675.759 627.537,808.914"/>
					<polygon style="fill:rgb(23, 23, 23);" points="392.732,675.135 553.377,675.759 466.877,808.288"/>
					
					<polygon style="fill:rgb(23, 23, 23, 0.9);" points="466.868,808.302 
						306.225,807.678 306.217,807.663 392.716,675.135 392.732,675.135 466.877,808.288"/>
					<polygon style="fill:rgb(23, 23, 23, 0.2);" points="800.545,543.84 714.045,676.372 639.898,543.217"/>
				
					<polygon style="fill:rgb(23, 23, 23, 0.6);" points="714.051,676.383 
						714.045,676.372 800.545,543.84 800.558,543.84 874.705,676.996 874.698,677.007"/>
					<polygon style="fill:rgb(23, 23, 23, 0.2);" points="961.206,544.464 874.705,676.996 800.558,543.84"/>
					<polygon style="fill:rgb(23, 23, 23, 0.2);" points="306.225,807.678 380.37,940.83 380.37,940.83 380.36,940.845 380.36,940.845 
						380.36,940.845 219.719,940.221 219.71,940.205 306.207,807.678 306.225,807.678"/>
					<polygon style="fill:rgb(23, 23, 23, 0.2);" points="466.885,808.303 541.03,941.455 541.021,941.469 380.378,940.845 380.37,940.83 
						380.37,940.83 306.225,807.678 466.868,808.302"/>
					<polygon style="fill:rgb(23, 23, 23);" points="466.885,808.302 627.529,808.926 541.03,941.455"/>
					<polygon style="fill:rgb(23, 23, 23, 0.2);" points="296.564,1075.035 222.42,941.883 383.061,942.508"/>
				
					<polygon style="fill:rgb(23, 23, 23);" points="293.862,1073.372 
						293.862,1073.372 293.852,1073.387 293.852,1073.387 293.852,1073.387 133.211,1072.764 133.202,1072.747 219.699,940.221 
						219.719,940.221 293.863,1073.372"/>
					
						<rect x="380.36" y="940.845" transform="matrix(0.8944 -0.4472 0.4472 0.8944 -380.6029 269.4299)" style="fill:rgb(23, 23, 23);" width="0" height="0"/>
				
					<polygon style="fill:rgb(23, 23, 23, 0.2)" points="380.36,940.845 
						380.36,940.845 380.36,940.845 380.36,940.845"/>
				
					<polygon style="fill:rgb(17, 17, 17, 0.4);" points="788.197,809.539 788.19,809.55 627.544,808.926 627.544,808.926 627.529,808.926 
						627.537,808.914 627.537,808.914 553.391,675.759 714.037,676.383 714.051,676.383"/>
					
					<polygon style="fill:rgb(23, 23, 23, 0.2);" points="874.698,677.007 
						788.198,809.538 714.051,676.383"/>
					<polygon style="fill:rgb(23, 23, 23, 0.2);" points="639.898,543.217 639.892,543.205 726.392,410.673 726.405,410.673 800.552,543.829 
						800.545,543.84"/>
					<polygon style="fill:rgb(23, 23, 23);" points="95.557,636.864 71.404,673.871 -2.74,540.721 157.901,541.344"/>
					<polygon style="fill:rgb(23, 23, 23);" points="157.902,541.344 157.919,541.345 318.562,541.968 232.064,674.496 232.059,674.504 
						232.064,674.497 232.072,674.511 232.055,674.511 232.055,674.511 232.055,674.511 100.933,674.002 71.413,673.887 
						71.413,673.887 145.557,807.038 145.566,807.054 306.207,807.678 219.71,940.205 219.719,940.221 219.699,940.221 
						133.202,1072.747 59.061,939.602 59.058,939.597 59.038,939.597 59.049,939.58 145.546,807.054 -15.089,806.43 71.405,673.908 
						71.379,673.909 71.393,673.887 71.404,673.872 71.403,673.872 71.404,673.871 95.557,636.864"/>
					<polygon style="fill:rgb(17, 17, 17, 0.4);" points="232.072,674.511 232.064,674.497 318.563,541.968 318.579,541.969 392.724,675.121 
						392.716,675.135"/>
					<polygon style="fill:rgb(17, 17, 17, 0.4);" points="-15.104,806.414 -15.095,806.43 -15.115,806.43"/>
					<polygon style="fill:rgb(17, 17, 17, 0.4);" points="466.877,808.288 466.885,808.302 466.868,808.302"/>
					<polygon style="fill:rgb(17, 17, 17, 0.4);" points="306.225,807.678 306.207,807.678 306.217,807.663"/>
					<polygon style="fill:rgb(17, 17, 17, 0.4);" points="133.191,1072.764 133.202,1072.747 133.211,1072.764"/>
					<polygon style="fill:rgb(17, 17, 17, 0.4);" points="293.872,1073.388 293.852,1073.387 293.852,1073.387 293.862,1073.372 
						293.863,1073.372"/>
					<polygon style="fill:rgb(17, 17, 17, 0.4);" points="874.705,676.996 874.711,677.007 874.698,677.007"/>
					<polygon style="fill:rgb(23, 23, 23);" points="445.657,465.111 445.657,465.109 501.476,465.326 471.42,511.377"/>
					<polygon style="fill:rgb(23, 23, 23);" points="107.413,472.194 107.413,472.192 163.232,472.409 133.176,518.459"/>
					<polygon style="fill:rgb(23, 23, 23);" points="739.602,401.748 739.601,401.746 827.258,402.086 780.059,474.403"/>
					<polygon style="fill:rgb(17, 17, 17, 0.4);" points="380.36,940.845 380.36,940.845 380.37,940.83 380.378,940.845"/>
					<polygon style="fill:rgb(17, 17, 17, 0.4);" points="726.399,410.663 726.405,410.673 726.392,410.673"/>
					<polygon style="fill:rgb(17, 17, 17, 0.4);" points="714.045,676.372 714.051,676.383 714.037,676.383"/>
					<polygon style="fill:rgb(17, 17, 17, 0.4);" points="-2.76,540.72 -2.749,540.705 -2.74,540.721"/>
					<polygon style="fill:rgb(17, 17, 17, 0.4);" points="961.218,544.464 961.206,544.464 961.212,544.454"/>
					<polygon style="fill:rgb(17, 17, 17, 0.4);" points="157.911,541.33 157.919,541.345 157.901,541.344"/>
					<polygon style="fill:rgb(17, 17, 17, 0.4);" points="800.552,543.829 800.558,543.84 800.545,543.84"/>
					<polygon style="fill:rgb(17, 17, 17, 0.4);" points="318.571,541.955 318.579,541.969 318.563,541.968"/>
					<polygon style="fill:rgb(17, 17, 17, 0.4);" points="479.238,542.592 553.384,675.747 553.384,675.747 553.384,675.747 553.391,675.759 
						553.391,675.759 553.377,675.759 392.732,675.135 392.716,675.135 392.724,675.121 479.223,542.592 479.232,542.58 
						479.239,542.593 479.239,542.593"/>
					<polygon style="fill:rgb(17, 17, 17, 0.4);" points="639.885,543.216 639.884,543.216 639.884,543.216 639.892,543.205 639.898,543.217"/>
					<g>
						<path style="fill:none;" d="M479.238,542.592L479.238,542.592L479.238,542.592z"/>
						<polygon style="fill:rgb(23, 23, 23, 0.3);" points="639.884,543.216 639.885,543.216 639.898,543.217 714.044,676.372 714.037,676.383 553.415,675.759 639.906,543.243 479.261,542.62 553.399,675.759 553.391,675.759 553.384,675.747 479.239,542.593 639.884,543.216	"/>
						<polygon style="fill:rgb(23, 23, 23, 0.2);" points="639.906,543.243 553.415,675.759 553.406,675.773 553.399,675.759 479.261,542.62"/>
					</g>
					
					<polygon style="fill:rgb(23, 23, 23, 0.2);" points="59.061,939.619 59.051,939.601 145.534,807.097 145.559,807.097 145.57,807.081 219.711,940.226 219.701,940.243"/>
					<polygon style="fill:rgb(23, 23, 23, 0.5);" points="-15.109,806.421 -15.119,806.403 71.364,673.899 71.389,673.899 71.4,673.883 145.541,807.028 145.53,807.045"/>
					<polygon style="fill:rgb(23, 23, 23, 0.2);" points="639.885,543.203 639.875,543.185 726.357,410.681 726.383,410.681 726.393,410.665 800.535,543.81 800.524,543.827"/>
					<polygon style="fill:rgb(23, 23, 23, 0.2);" points="393.979,674.448 393.969,674.43 480.452,541.926 480.477,541.926 480.488,541.909 554.629,675.055 554.618,675.072"/>
					<polygon style="fill:rgb(23, 23, 23, 0.9);" points="157.938,541.362 187.458,541.476 318.579,541.985 232.082,674.513"/>
					<polygon style="fill:rgb(17, 17, 17, 0.4);" points="133.755,578.348 157.908,541.341 232.052,674.492 71.411,673.868"/>
				</g>
				<polygon style="fill:rgb(23, 23, 23, 0.2);" points="469.081,521.425 417.158,600.978 417.153,600.986 417.149,600.978 372.642,521.051"/>
			</g>
			<polygon style="fill:none;" points="1062.125,639.326 1124.469,543.805 1124.487,543.806 1124.469,543.806"/>
			<polygon style="fill:none;" points="1037.98,676.349 1067.501,676.463 1037.98,676.349"/>
			<polygon style="fill:rgb(23, 23, 23, 0.2);" points="1272.775,810.139 1112.133,809.515 1112.125,809.5 1198.622,676.973 1198.622,676.973 1198.623,676.972 1198.64,676.973 1272.785,810.125"/>
			<polygon style="fill:rgb(23, 23, 23, 0.5);" points="1037.976,676.34 1067.496,676.455 1198.618,676.964 1112.12,809.491"/>
			<polygon style="fill:rgb(23, 23, 23, 0.9);" points="875.836,676.34 905.357,676.455 1036.478,676.964 949.981,809.491"/>
			<polygon style="fill:rgb(23, 23, 23);" points="1065.723,606.664 1048.905,632.432 997.278,539.718 1109.134,540.152"/>
			<polygon style="fill:rgb(23, 23, 23, 0.2);" points="1086.983,490.672 1077.443,476.054 1048.157,528.647 1111.608,528.401"/>
			<polygon style="fill:rgb(17, 17, 17, 0.4);" points="877.311,675.708 877.32,675.725 877.3,675.725"/>
			<polygon style="fill:rgb(17, 17, 17, 0.4);" points="963.808,543.182 963.819,543.166 963.828,543.182"/>
			<polygon style="fill:rgb(17, 17, 17, 0.4);" points="1124.479,543.791 1124.487,543.806 1124.469,543.805"/>
			
			<polygon style="fill:rgb(23, 23, 23, 0.1);" points="951.459,808.882 951.449,808.865 1037.932,676.36 1037.957,676.36 1037.968,676.344 1112.109,809.49 1112.098,809.506"/>

			<polygon style="fill:rgb(23, 23, 23, 0.2);" points="1100.323,580.809 1124.476,543.802 1198.62,676.953 1037.979,676.329"/>
			
			<polygon style="fill:rgb(23, 23, 23, 0.2);" points="689.894,713.392 714.048,676.385 788.192,809.536 627.55,808.912"/>
		</g>
	</g>
</g>
</svg>
