<?xml version="1.0" encoding="UTF-8"?>
<!DOCTYPE svg PUBLIC "-//W3C//DTD SVG 1.1//EN" "http://www.w3.org/Graphics/SVG/1.1/DTD/svg11.dtd">
<!-- Creator: CorelDRAW -->
<svg xmlns="http://www.w3.org/2000/svg" xml:space="preserve" width="210mm" height="297mm" version="1.1" style="shape-rendering:geometricPrecision; text-rendering:geometricPrecision; image-rendering:optimizeQuality; fill-rule:evenodd; clip-rule:evenodd"
viewBox="0 0 21000 29700"
 xmlns:xlink="http://www.w3.org/1999/xlink"
 xmlns:xodm="http://www.corel.com/coreldraw/odm/2003">
 <defs>
  <style type="text/css">
   <![CDATA[
    .str0 {stroke:black;stroke-width:75;stroke-linejoin:bevel;stroke-miterlimit:22.9256}
    .fil0 {fill:#e20000}
   ]]>
  </style>
 </defs>
 <g id="Layer_x0020_1">
  <metadata id="CorelCorpID_0Corel-Layer"/>
  <g id="Geometric_x0020_Polygon_x0020_heart--geometric-polygone-hearts-love-clipart-wall_x0020_decor.dxf">
   <path class="fil0 str0" d="M7017.66 10721.63c0,0 1951.94,-8.51 1951.94,-8.51 0,0 0,0 0,0 0,0 1485.16,1162.73 1485.16,1162.73 0,0 0,0 0,0 0,0 1510.73,-1247.56 1510.73,-1247.56 0,0 0,0 0,0 0,0 1850.17,34.03 1850.17,34.03 0,0 0,0 0,0 0,0 1222.23,1205.14 1222.23,1205.14 0,0 0,0 0,0 0,0 377.83,2032.62 377.83,2032.62 0,0 0,0 0,0 0,0 -1196.56,1858.64 -1196.56,1858.64 0,0 0,0 0,0 0,0 -3742.5,3318.4 -3742.5,3318.4 0,0 0,0 0,0 0,0 -3700.07,-3470.75 -3700.07,-3470.75 0,0 0,0 0,0 0,0 -1158.42,-1336.66 -1158.42,-1336.66 0,0 0,0 0,0 0,0 -33.91,-2070.77 -33.91,-2070.77 0,0 0,0 0,0 0,0 1433.4,-1477.31 1433.4,-1477.31z"/>
   <path class="fil0 str0" d="M7099.18 10858.03c0,0 1290.02,-8.47 1290.02,-8.47 0,0 0,0 0,0 0,0 -1408.8,611.04 -1408.8,611.04 0,0 0,0 0,0 0,0 118.78,-602.57 118.78,-602.57z"/>
   <path class="fil0 str0" d="M12423.06 10743.56c0,0 1349.41,46.69 1349.41,46.69 0,0 0,0 0,0 0,0 314.01,670.43 314.01,670.43 0,0 0,0 0,0 0,0 -1663.42,-717.12 -1663.42,-717.12z"/>
   <path class="fil0 str0" d="M12020.18 10718.08c0,0 2087.74,899.6 2087.74,899.6 0,0 0,0 0,0 0,0 -2978.84,1612.5 -2978.84,1612.5 0,0 0,0 0,0 0,0 891.1,-2512.1 891.1,-2512.1z"/>
   <path class="fil0 str0" d="M11816.18 10930.2c0,0 -806.23,2291.43 -806.23,2291.43 0,0 0,0 0,0 0,0 -475.24,-1213.61 -475.24,-1213.61 0,0 0,0 0,0 0,0 1281.47,-1077.82 1281.47,-1077.82z"/>
   <path class="fil0 str0" d="M14073.82 11087.24c0,0 734.13,712.89 734.13,712.89 0,0 0,0 0,0 0,0 -551.65,-246.11 -551.65,-246.11 0,0 0,0 0,0 0,0 -182.48,-466.78 -182.48,-466.78z"/>
   <path class="fil0 str0" d="M7104.07 11546.4c0,0 1850.13,-695.91 1850.13,-695.91 0,0 0,0 0,0 0,0 1824.66,2342.35 1824.66,2342.35 0,0 0,0 0,0 0,0 -3674.79,-1646.44 -3674.79,-1646.44z"/>
   <path class="fil0 str0" d="M14986.43 12059.02c0,0 -241.87,920.81 -241.87,920.81 0,0 0,0 0,0 0,0 -318.28,-1192.4 -318.28,-1192.4 0,0 0,0 0,0 0,0 560.15,271.59 560.15,271.59z"/>
   <path class="fil0 str0" d="M14244.18 11728.23c0,0 432.83,1502.18 432.83,1502.18 0,0 0,0 0,0 0,0 -3335.3,42.42 -3335.3,42.42 0,0 0,0 0,0 0,0 2902.47,-1544.6 2902.47,-1544.6z"/>
   <path class="fil0 str0" d="M15012.03 12402.78c0,0 263.08,1298.45 263.08,1298.45 0,0 0,0 0,0 0,0 -462.54,-415.86 -462.54,-415.86 0,0 0,0 0,0 0,0 199.46,-882.59 199.46,-882.59z"/>
   <path class="fil0 str0" d="M11027.77 13417.2c0,0 3437.15,-50.92 3437.15,-50.92 0,0 0,0 0,0 0,0 -4107.46,2248.94 -4107.46,2248.94 0,0 0,0 0,0 0,0 670.31,-2198.02 670.31,-2198.02z"/>
   <path class="fil0 str0" d="M9435.37 11273.92c0,0 959.04,695.92 959.04,695.92 0,0 0,0 0,0 0,0 407.35,1043.87 407.35,1043.87 0,0 0,0 0,0 0,0 -1366.39,-1739.79 -1366.39,-1739.79z"/>
   <path class="fil0 str0" d="M7036.13 11699.13c0,0 3589.88,1570.08 3589.88,1570.08 0,0 0,0 0,0 0,0 -2987.35,-263.09 -2987.35,-263.09 0,0 0,0 0,0 0,0 -602.53,-1306.99 -602.53,-1306.99z"/>
   <path class="fil0 str0" d="M6874.85 11699.13c0,0 602.58,1332.44 602.58,1332.44 0,0 0,0 0,0 0,0 -1680.39,967.5 -1680.39,967.5 0,0 0,0 0,0 0,0 1077.81,-2299.94 1077.81,-2299.94z"/>
   <path class="fil0 str0" d="M10880.51 13413.47c0,0 -712.89,2206.56 -712.89,2206.56 0,0 0,0 0,0 0,0 -2401.74,-2435.7 -2401.74,-2435.7 0,0 0,0 0,0 0,0 3114.63,229.14 3114.63,229.14z"/>
   <path class="fil0 str0" d="M7561.99 13214.01c0,0 2486.58,2444.2 2486.58,2444.2 0,0 0,0 0,0 0,0 -3097.7,-869.89 -3097.7,-869.89 0,0 0,0 0,0 0,0 611.12,-1574.31 611.12,-1574.31z"/>
   <path class="fil0 str0" d="M6988.52 14966.23c0,0 3140.11,823.24 3140.11,823.24 0,0 0,0 0,0 0,0 -882.63,1612.49 -882.63,1612.49 0,0 0,0 0,0 0,0 -2257.48,-2435.73 -2257.48,-2435.73z"/>
   <path class="fil0 str0" d="M6912.08 15068.15c0,0 1621.03,1765.18 1621.03,1765.18 0,0 0,0 0,0 0,0 -1638.01,-1302.68 -1638.01,-1302.68 0,0 0,0 0,0 0,0 16.98,-462.5 16.98,-462.5z"/>
   <path class="fil0 str0" d="M6882.82 11010.76c0,0 -50.92,487.99 -50.92,487.99 0,0 0,0 0,0 0,0 -768.05,420.09 -768.05,420.09 0,0 0,0 0,0 0,0 818.97,-908.08 818.97,-908.08z"/>
   <path class="fil0 str0" d="M7353.91 13298.84c0,0 -543.18,1480.97 -543.18,1480.97 0,0 0,0 0,0 0,0 -1039.64,-581.36 -1039.64,-581.36 0,0 0,0 0,0 0,0 1582.82,-899.61 1582.82,-899.61z"/>
   <path class="fil0 str0" d="M6713.62 11724.61c0,0 -967.51,2096.25 -967.51,2096.25 0,0 0,0 0,0 0,0 -59.39,-1544.6 -59.39,-1544.6 0,0 0,0 0,0 0,0 1026.9,-551.65 1026.9,-551.65z"/>
   <path class="fil0 str0" d="M14766.03 13425.52c0,0 492.22,458.27 492.22,458.27 0,0 0,0 0,0 0,0 -899.56,1366.38 -899.56,1366.38 0,0 0,0 0,0 0,0 407.34,-1824.65 407.34,-1824.65z"/>
   <path class="fil0 str0" d="M10323.86 15755.63c0,0 4082.29,-2214.99 4082.29,-2214.99 0,0 0,0 0,0 0,0 -3581.57,4387.6 -3581.57,4387.6 0,0 0,0 0,0 0,0 -500.72,-2172.61 -500.72,-2172.61z"/>
   <path class="fil0 str0" d="M11274.62 17682.25c0,0 3284.37,-4065.2 3284.37,-4065.2 0,0 0,0 0,0 0,0 -424.32,2036.81 -424.32,2036.81 0,0 0,0 0,0 0,0 -2860.05,2028.39 -2860.05,2028.39z"/>
   <path class="fil0 str0" d="M10841.29 18161.3c0,0 1951.94,-1315.46 1951.94,-1315.46 0,0 0,0 0,0 0,0 -2130.19,1850.14 -2130.19,1850.14 0,0 0,0 0,0 0,0 178.25,-534.68 178.25,-534.68z"/>
   <path class="fil0 str0" d="M10221.93 15899.74c0,0 449.77,2053.79 449.77,2053.79 0,0 0,0 0,0 0,0 -1306.96,-500.73 -1306.96,-500.73 0,0 0,0 0,0 0,0 857.19,-1553.06 857.19,-1553.06z"/>
   <path class="fil0 str0" d="M9135.61 17427.36c0,0 585.6,789.25 585.6,789.25 0,0 0,0 0,0 0,0 -1714.34,-1637.93 -1714.34,-1637.93 0,0 0,0 0,0 0,0 1128.74,848.68 1128.74,848.68z"/>
   <path class="fil0 str0" d="M6776.74 14924.12c0,0 -21.21,479.48 -21.21,479.48 0,0 0,0 0,0 0,0 -785.02,-916.58 -785.02,-916.58 0,0 0,0 0,0 0,0 806.23,437.1 806.23,437.1z"/>
   <path class="fil0 str0" d="M9598 17749.8c0,0 1103.3,377.67 1103.3,377.67 0,0 0,0 0,0 0,0 -233.37,751.11 -233.37,751.11 0,0 0,0 0,0 0,0 -869.93,-1128.78 -869.93,-1128.78z"/>
  </g>
 </g>
</svg>


